<svg width="37" height="37" viewBox="0 0 37 37" fill="none" xmlns="http://www.w3.org/2000/svg">
<path d="M18.1827 12.8795V11.343M18.1827 11.743C18.1827 7.34887 21.7435 3.78809 26.1377 3.78809C30.5318 3.78809 34.0926 7.39736 34.0926 11.7915C34.0926 14.1553 33.0517 16.4205 31.244 17.9464L22.6724 25.1831C21.2658 26.3708 20.1353 27.8512 19.3599 29.5208C18.5844 31.1905 18.1827 33.0093 18.1827 34.8503C18.1828 33.0093 17.781 31.1905 17.0056 29.5208C16.2302 27.8512 15.0997 26.3708 13.6931 25.1831L5.12146 17.9464C4.22878 17.1884 3.51164 16.2453 3.01976 15.1825C2.52787 14.1197 2.273 12.9626 2.27283 11.7915C2.27283 7.39736 5.83361 3.78809 10.2278 3.78809C14.6219 3.78809 18.1827 7.34887 18.1827 11.743Z" stroke="white"/>
</svg>
