<svg width="36" height="36" viewBox="0 0 36 36" fill="none" xmlns="http://www.w3.org/2000/svg">
<path d="M12 7.60503C14.5213 6.14988 17.4857 5.6609 20.3408 6.22918C23.1959 6.79747 25.7471 8.38426 27.5191 10.694C29.2911 13.0037 30.1631 15.8788 29.9726 18.7836C29.782 21.6885 28.542 24.4251 26.4836 26.4836C24.4251 28.5421 21.6885 29.7821 18.7836 29.9726C15.8787 30.1631 13.0036 29.2912 10.6939 27.5192C8.38423 25.7472 6.79744 23.196 6.22915 20.3409C5.66087 17.4857 6.14985 14.5214 7.605 12" stroke="white" stroke-width="1.5" stroke-linecap="round"/>
<path d="M20.745 22.389C12.603 26.7285 4.77299 28.2795 3.25499 25.854C2.45699 24.576 3.57149 22.449 5.99999 20.085M26.7735 9.28504C29.79 8.73004 32.0085 8.97004 32.7435 10.1445C33.9405 12.057 30.8535 15.87 25.5 19.524" stroke="white" stroke-width="1.5" stroke-linecap="round" stroke-linejoin="round"/>
</svg>
