<svg width="36" height="36" viewBox="0 0 36 36" fill="none" xmlns="http://www.w3.org/2000/svg">
<path d="M1.39758 30.8475C6.11393 28.0211 8.09112 30.24 11.149 33.2908C8.98796 34.1142 6.32874 31.8874 6.32874 31.8874L8.07664 33.9855C8.07664 33.9855 5.77601 35.1126 4.12543 31.9753L4.89886 34.399C4.89886 34.399 2.66581 35.0761 1.39758 30.8475ZM34.6024 30.8475C29.886 28.0211 27.9088 30.24 24.8509 33.2908C27.012 34.1142 29.6712 31.8874 29.6712 31.8874L27.9233 33.9855C27.9233 33.9855 30.2239 35.1126 31.8745 31.9753L31.1011 34.399C31.1011 34.399 33.3342 35.0761 34.6024 30.8475ZM18 5.29514C10.988 5.29514 5.29515 10.988 5.29515 18C5.29515 25.012 10.988 30.7047 18 30.7047C25.012 30.7047 30.7048 25.012 30.7048 18C30.7048 10.988 25.012 5.29514 18 5.29514ZM17.4027 29.7977H18.5973V28.6038H17.4027V29.7977ZM18 8.454C23.2686 8.454 27.546 12.7314 27.546 18C27.546 23.2686 23.2686 27.546 18 27.546C12.7314 27.546 8.45401 23.2686 8.45401 18C8.45401 12.7314 12.7314 8.454 18 8.454ZM9.23518 25.9201L10.0798 26.7648L10.9246 25.9201L10.0798 25.0754L9.23518 25.9201ZM25.9201 26.7648L26.7648 25.9201L25.9201 25.0754L25.0754 25.9201L25.9201 26.7648ZM18 10.3221C13.7624 10.3221 10.3221 13.7624 10.3221 18C10.3221 22.2376 13.7624 25.6779 18 25.6779C22.2376 25.6779 25.6779 22.2376 25.6779 18C25.6779 13.7624 22.2376 10.3221 18 10.3221ZM21.6685 22.4716C20.8073 23.1791 19.7385 23.643 18.5679 23.7572V19.3711L21.6685 22.4716ZM17.4321 23.7572C16.2613 23.6429 15.1926 23.1791 14.3315 22.4716L17.4321 19.3711V23.7572ZM13.5283 21.6685C12.8208 20.8073 12.357 19.7385 12.2427 18.5679H16.6289L13.5283 21.6685ZM23.7572 18.5679C23.6429 19.7387 23.1791 20.8073 22.4716 21.6685L19.3711 18.5679H23.7572ZM6.20197 17.4027V18.5973H7.3965V17.4027H6.20197ZM29.798 18.5973V17.4027H28.6035V18.5973H29.798ZM22.4716 14.3315C23.1791 15.1926 23.643 16.2614 23.7572 17.4321H19.3711L22.4716 14.3315ZM13.5283 14.3315L16.6289 17.4321H12.2427C12.3571 16.2613 12.8209 15.1926 13.5283 14.3315ZM17.4321 12.2427V16.6289L14.3315 13.5283C15.1926 12.8208 16.2614 12.357 17.4321 12.2427ZM18.5679 12.2427C19.7387 12.357 20.8073 12.8209 21.6685 13.5283L18.5679 16.6289V12.2427ZM10.0798 9.23517L9.23518 10.0798L10.0798 10.9246L10.9246 10.0798L10.0798 9.23517ZM26.7648 10.0798L25.9201 9.23517L25.0754 10.0798L25.9201 10.9246L26.7648 10.0798ZM18.5973 6.20196H17.4027V7.3965H18.5973V6.20196ZM34.6024 2.8624C29.886 0.0362564 27.9088 2.25539 24.8509 5.30625C27.012 6.12975 29.6712 3.90232 29.6712 3.90232L27.9233 6.0008C27.9233 6.0008 30.2239 7.12798 31.8745 3.9907L31.1011 6.4143C31.1011 6.4143 33.3342 7.09148 34.6024 2.8624ZM1.39758 2.8624C6.11393 0.0362564 8.09112 2.25539 11.149 5.30625C8.98796 6.12975 6.32874 3.90232 6.32874 3.90232L8.07664 6.0008C8.07664 6.0008 5.77601 7.12798 4.12543 3.9907L4.89886 6.4143C4.89886 6.4143 2.66581 7.09148 1.39758 2.8624Z" fill="white"/>
</svg>
