<svg width="24" height="24" viewBox="0 0 24 24" fill="none" xmlns="http://www.w3.org/2000/svg">
<path d="M11.9111 14.5455H14.7556C14.7556 15.3455 14.1156 16 13.3333 16C12.5511 16 11.9111 15.3455 11.9111 14.5455ZM10.4889 13.8182H16.1778V12.3636H10.4889V13.8182ZM18.6667 6.90909C18.6667 9.68727 16.7751 11.1709 15.9858 11.6364H10.6809C9.89156 11.1709 8 9.68727 8 6.90909C8 3.89818 10.3893 1.45455 13.3333 1.45455C16.2773 1.45455 18.6667 3.89818 18.6667 6.90909ZM22.1298 5.36L21.1556 5.81818L22.1298 6.27636L22.5778 7.27273L23.0258 6.27636L24 5.81818L23.0258 5.36L22.5778 4.36364L22.1298 5.36ZM20.4444 4.36364L21.1129 2.86545L22.5778 2.18182L21.1129 1.49818L20.4444 0L19.776 1.49818L18.3111 2.18182L19.776 2.86545L20.4444 4.36364Z" fill="white"/>
</svg>
